<?xml version="1.0" standalone="no"?>
<!DOCTYPE svg PUBLIC "-//W3C//DTD SVG 20010904//EN"
 "http://www.w3.org/TR/2001/REC-SVG-20010904/DTD/svg10.dtd">
<svg version="1.0" xmlns="http://www.w3.org/2000/svg"
 width="500.000000pt" height="500.000000pt" viewBox="0 0 500.000000 500.000000"
 preserveAspectRatio="xMidYMid meet">
<metadata>
Created by potrace 1.14, written by Peter Selinger 2001-2017
</metadata>
<g transform="translate(0.000000,500.000000) scale(0.100000,-0.100000)"
fill="#000000" stroke="none">
<path d="M2520 4544 c-267 -36 -543 -128 -757 -252 -38 -22 -86 -43 -107 -46
-131 -24 -255 -152 -272 -280 -6 -42 -10 -47 -67 -80 -33 -20 -62 -34 -65 -32
-2 3 -1 24 2 48 6 33 14 48 38 63 73 47 98 176 59 304 -12 39 -25 72 -30 76
-13 8 -90 -91 -118 -152 -24 -53 -32 -128 -18 -175 4 -12 18 -35 32 -50 24
-25 24 -28 13 -84 -10 -48 -20 -66 -59 -104 -25 -25 -65 -67 -87 -93 -48 -55
-69 -61 -61 -17 13 65 19 268 9 325 -14 76 -43 225 -49 245 -7 23 -47 -31 -93
-126 -86 -175 -70 -372 39 -478 l39 -38 -40 -40 c-56 -56 -123 -163 -149 -239
-14 -41 -23 -93 -25 -146 -1 -44 -7 -89 -14 -100 -9 -14 -10 14 -6 122 7 187
29 278 68 288 15 4 19 12 16 34 -3 24 -8 28 -33 28 -28 0 -30 -3 -32 -40 -1
-22 -8 -65 -16 -95 -8 -31 -18 -87 -22 -125 l-8 -70 -19 79 c-10 44 -34 112
-52 150 -25 53 -32 80 -29 107 6 42 -15 69 -52 69 -55 0 -76 -76 -30 -106 14
-9 32 -13 41 -10 32 12 109 -201 130 -363 l7 -53 -71 71 c-39 39 -76 71 -82
71 -5 0 -10 14 -10 30 0 23 -6 33 -25 42 -22 10 -29 9 -47 -10 -19 -18 -20
-25 -10 -47 9 -20 19 -25 46 -25 28 0 45 -11 104 -69 99 -96 103 -114 64 -272
-17 -68 -35 -164 -42 -214 -18 -138 -28 -173 -22 -74 6 101 -8 170 -49 249
-33 63 -175 230 -195 230 -8 0 -17 -12 -20 -27 -10 -39 12 -249 31 -303 26
-75 79 -143 145 -185 63 -41 60 -36 89 -152 15 -59 63 -354 59 -359 -3 -2 -12
20 -21 49 -9 29 -38 85 -64 124 -50 74 -309 350 -320 340 -12 -13 -4 -195 12
-257 39 -152 157 -298 293 -365 l61 -30 0 -50 c0 -52 -12 -132 -22 -141 -9 -9
-80 -10 -104 -1 -22 8 -23 6 -23 -35 0 -56 -11 -118 -20 -118 -13 0 -40 102
-40 151 0 39 5 53 26 72 41 39 11 92 -37 67 -19 -10 -26 -40 -12 -53 3 -4 7
-46 8 -94 1 -49 5 -97 9 -108 l8 -20 -17 20 c-10 11 -38 62 -63 113 -38 79
-44 97 -34 113 27 43 3 86 -42 75 -14 -3 -28 -16 -32 -28 -5 -17 0 -28 25 -48
17 -15 31 -33 31 -41 0 -9 20 -55 45 -103 24 -48 39 -86 32 -84 -68 18 -157
54 -157 63 0 20 -37 47 -61 43 -29 -4 -43 -29 -35 -61 7 -31 48 -46 71 -27 11
9 28 7 82 -10 82 -27 154 -63 173 -84 7 -9 11 -18 9 -19 -24 -17 -170 -77
-186 -77 -12 0 -24 -4 -27 -9 -7 -10 94 -174 130 -212 l25 -26 -118 -7 c-75
-5 -136 -3 -167 4 -27 6 -51 8 -54 5 -11 -10 31 -75 69 -110 87 -78 219 -121
341 -111 l76 6 -13 -44 c-18 -60 -32 -84 -72 -130 -19 -21 -31 -42 -26 -46 15
-14 103 -40 136 -40 82 1 220 52 325 121 l32 21 0 -25 c0 -14 -7 -61 -15 -104
-28 -143 -12 -285 42 -384 25 -46 65 -89 83 -89 4 0 10 37 13 83 4 54 20 130
48 222 38 125 42 152 43 248 1 59 2 107 3 107 8 0 44 -144 54 -214 14 -98 8
-136 -19 -129 -24 6 -44 -19 -40 -49 2 -16 11 -24 29 -26 45 -5 54 19 53 147
0 112 0 115 13 71 7 -25 20 -81 28 -125 13 -76 13 -81 -6 -101 -10 -11 -19
-30 -19 -42 0 -27 42 -56 69 -47 39 12 39 88 0 100 -15 5 -19 16 -19 48 0 23
-7 69 -14 102 -8 33 -14 61 -13 62 7 6 97 -121 97 -136 0 -10 7 -21 15 -25 25
-9 45 5 45 31 0 23 3 22 57 -27 41 -38 93 -69 192 -116 75 -35 162 -77 194
-93 47 -23 59 -26 64 -15 5 13 -15 117 -32 169 l-7 20 17 -20 c53 -63 109
-247 78 -259 -19 -8 -16 -44 5 -55 23 -12 52 4 52 30 0 11 -7 22 -15 25 -9 4
-15 19 -15 38 0 18 -7 55 -15 82 -26 87 -18 84 54 -20 46 -67 50 -77 39 -96
-18 -28 0 -54 40 -58 42 -4 61 28 37 64 -8 13 -23 24 -33 24 -9 0 -30 21 -47
47 -16 26 -51 74 -77 107 -27 33 -46 61 -45 63 6 6 122 -50 126 -60 2 -5 19
-27 38 -48 46 -51 119 -77 248 -88 57 -5 109 -12 115 -16 7 -4 14 2 17 15 5
20 10 22 52 16 428 -60 863 10 1242 199 315 158 587 396 791 690 424 612 483
1425 154 2100 -76 156 -255 427 -358 545 -366 415 -829 660 -1363 720 -125 14
-369 11 -495 -6z m520 -25 c273 -30 552 -125 802 -272 100 -59 262 -176 254
-184 -2 -3 -45 23 -95 57 -188 125 -388 212 -656 284 -216 57 -313 74 -500 87
-230 15 -433 -5 -661 -66 -108 -28 -135 -31 -84 -9 53 23 284 81 375 94 185
27 370 30 565 9z m-285 -60 c-249 -17 -463 -63 -661 -143 -85 -34 -235 -64
-266 -54 -16 6 220 99 333 131 80 24 286 62 374 70 22 2 108 4 190 4 l150 0
-120 -8z m385 -45 c144 -19 206 -35 334 -86 1097 -436 1608 -1686 1132 -2767
-81 -184 -216 -391 -360 -551 -287 -320 -746 -544 -1230 -601 -112 -13 -460
-6 -540 11 -28 5 -59 19 -70 29 -41 37 -91 54 -167 59 -77 4 -129 -11 -154
-45 -9 -12 -25 -7 -94 27 -80 41 -151 93 -151 111 0 5 26 9 58 9 47 0 61 -5
79 -24 39 -41 161 -59 234 -35 19 7 76 37 127 67 105 63 105 61 -3 110 -92 41
-156 49 -226 28 -57 -16 -133 -73 -144 -106 -6 -18 -15 -20 -79 -20 l-72 0
-47 54 c-75 87 -240 187 -336 202 -26 4 -48 1 -70 -11 -32 -16 -33 -16 -69 12
-44 33 -133 125 -128 131 3 2 24 -8 48 -21 49 -29 168 -77 277 -113 55 -18
287 -54 347 -54 28 0 -68 132 -127 176 -74 54 -132 75 -222 82 -79 5 -80 6
-57 21 14 9 45 35 70 57 54 50 109 79 187 99 80 21 139 19 170 -5 19 -15 30
-17 44 -9 25 13 25 55 0 69 -25 13 -27 13 -43 -3 -8 -8 -47 -16 -97 -20 l-83
-5 35 29 c43 36 95 115 112 173 8 25 23 54 34 65 28 28 26 47 -3 66 -19 13
-29 14 -45 5 -22 -11 -29 -54 -11 -65 27 -17 -8 -121 -64 -190 -30 -35 -136
-106 -136 -90 0 3 6 21 14 40 8 18 22 71 31 117 10 46 23 98 31 117 8 19 12
36 10 39 -3 2 -27 -1 -53 -7 -26 -5 -79 -13 -118 -17 l-70 -7 59 58 c86 85
109 142 114 283 2 61 1 112 -2 112 -25 0 -220 -162 -257 -213 l-28 -38 -35 77
c-20 42 -36 83 -36 90 0 28 -23 24 -66 -11 l-45 -37 -22 20 c-12 11 -42 32
-67 47 -25 15 -53 37 -63 49 -11 12 -20 16 -23 10 -2 -6 -22 -46 -44 -88 -22
-43 -43 -95 -46 -116 l-6 -37 -44 24 -44 25 54 60 c54 59 118 175 150 271 9
26 16 79 16 117 0 74 -27 220 -41 220 -5 0 -16 -15 -25 -32 -9 -18 -43 -67
-74 -108 -102 -134 -160 -249 -160 -317 0 -14 -4 -21 -10 -18 -15 9 -12 142 5
231 17 87 48 153 111 236 62 80 121 129 155 126 49 -4 79 48 47 80 -28 28 -78
7 -78 -34 0 -13 -14 -32 -35 -48 -41 -32 -132 -142 -170 -206 l-26 -45 6 35
c13 65 56 185 90 248 48 87 106 162 126 162 39 0 51 52 17 74 -25 15 -53 -4
-53 -36 -1 -14 -24 -61 -52 -104 -29 -44 -64 -106 -80 -139 l-27 -60 -9 59
c-7 52 -6 60 12 78 24 21 27 48 9 66 -16 16 -50 15 -67 0 -11 -11 -12 -8 -6
12 18 62 63 139 107 187 47 48 51 51 81 42 75 -22 223 19 324 90 64 45 133
124 120 137 -10 10 -260 -14 -312 -30 -66 -21 -142 -80 -174 -136 -32 -56
-124 -181 -129 -175 -8 7 49 170 66 191 9 11 62 50 117 86 174 114 234 190
271 338 21 84 22 85 70 112 26 14 89 38 140 52 89 26 92 26 122 9 29 -17 31
-17 51 1 40 36 21 86 -31 86 -20 0 -32 -7 -39 -23 -8 -17 -30 -28 -92 -46 -45
-13 -89 -26 -97 -29 -8 -2 12 23 45 57 38 39 67 61 82 61 25 0 46 30 37 54
-14 37 -74 23 -74 -18 0 -17 -26 -49 -92 -111 l-93 -87 -3 58 c-2 32 -8 61
-13 65 -15 9 83 93 163 141 59 35 70 39 85 27 10 -9 42 -14 94 -14 71 1 84 4
172 48 104 52 162 106 260 247 52 74 54 75 145 113 331 135 686 179 1062 131z
m-1830 -168 c-17 -18 -20 -18 -20 -4 0 9 5 29 11 45 l11 28 9 -24 c8 -20 5
-29 -11 -45z m-43 -18 c-3 -7 -5 -2 -5 12 0 14 2 19 5 13 2 -7 2 -19 0 -25z
m43 -58 c-55 -50 -52 -3 3 58 l21 23 8 -22 c7 -18 1 -29 -32 -59z m611 59
c-18 -11 -35 -18 -38 -16 -9 9 29 37 50 37 19 0 17 -3 -12 -21z m-121 -5 c0
-47 -25 -94 -62 -119 -22 -15 -41 -25 -43 -23 -3 3 21 119 30 146 7 19 75 16
75 -4z m70 0 c0 -16 -59 -78 -67 -70 -2 2 1 22 8 45 10 33 17 41 36 41 14 0
23 -6 23 -16z m-617 -75 c-7 -7 -15 1 -23 20 -10 26 -10 34 1 47 12 15 15 13
23 -20 5 -24 5 -41 -1 -47z m447 57 c0 -13 -9 -54 -20 -90 -19 -59 -25 -68
-62 -87 -34 -18 -40 -18 -35 -5 11 29 36 130 39 161 2 21 10 31 28 36 43 12
50 10 50 -15z m2206 -58 c212 -126 406 -295 561 -488 233 -290 372 -691 390
-1120 10 -249 -24 -485 -106 -731 -42 -125 -147 -357 -157 -347 -3 3 8 32 24
64 48 95 100 245 132 377 209 867 -142 1761 -885 2250 -145 95 -122 92 41 -5z
m-2307 5 c-20 -106 -42 -155 -76 -171 -18 -9 -35 -13 -38 -11 -2 3 9 39 25 80
16 40 29 84 30 96 0 12 10 29 22 37 39 27 46 21 37 -31z m-645 -20 c-10 -70
-21 -85 -29 -41 -5 26 -2 43 10 62 10 14 19 26 22 26 2 0 1 -21 -3 -47z m364
-54 c-42 -36 -48 -36 -48 -1 0 20 12 41 38 68 l37 38 3 -38 c3 -33 -1 -42 -30
-67z m-68 -13 c0 -35 -12 -39 -32 -9 -18 28 -23 68 -12 98 5 12 11 6 25 -25
11 -23 19 -52 19 -64z m650 96 c0 -18 -26 -32 -59 -32 l-36 0 25 20 c25 19 70
27 70 12z m-919 -85 c-16 -16 -13 -27 4 -21 25 10 18 -40 -10 -66 l-25 -23 0
25 c0 13 3 28 8 32 4 4 7 20 8 34 0 15 1 43 3 62 l3 35 10 -34 c6 -23 6 -37
-1 -44z m514 -18 c-26 -78 -52 -119 -76 -119 -17 0 -4 63 21 114 22 42 70 99
78 92 2 -3 -8 -42 -23 -87z m365 54 c0 -5 -10 -20 -23 -35 -21 -25 -25 -27
-76 -20 l-55 7 40 27 c37 25 114 39 114 21z m-931 -110 c1 -18 -3 -33 -9 -33
-15 0 -33 76 -25 107 l7 28 13 -35 c8 -19 14 -50 14 -67z m401 41 c-12 -31
-48 -74 -62 -74 -20 0 -5 37 29 72 20 21 38 36 40 34 2 -2 -1 -16 -7 -32z
m-90 -56 c-1 -18 -40 30 -40 49 0 11 7 7 20 -10 11 -14 20 -31 20 -39z m555
42 c-3 -5 -25 -23 -49 -39 l-43 -30 -52 17 -52 16 38 23 c29 17 53 23 101 23
39 0 61 -4 57 -10z m-877 -150 l-3 -45 -28 52 c-22 43 -26 60 -21 94 l7 41 24
-49 c16 -33 22 -62 21 -93z m58 4 l-36 -47 0 46 c0 38 6 53 33 83 l32 38 3
-37 c3 -29 -4 -46 -32 -83z m685 69 c6 -6 -4 -15 -32 -26 -37 -15 -44 -15 -80
0 -21 8 -39 19 -39 23 0 26 126 28 151 3z m-126 -37 c17 -9 11 -11 -39 -14
-65 -3 -95 11 -55 27 26 10 62 5 94 -13z m-521 -63 c-6 -46 -64 -145 -64 -111
0 8 -3 28 -6 44 -4 23 2 37 31 72 20 23 39 42 41 42 3 0 2 -21 -2 -47z m-88
-87 l5 -31 -35 39 c-29 31 -36 47 -36 80 l0 40 30 -48 c17 -27 33 -62 36 -80z
m79 -53 c-10 -78 -20 -97 -34 -60 -6 16 -11 36 -11 46 0 17 35 71 46 71 3 0 2
-26 -1 -57z m-61 -37 c7 -27 6 -28 -9 -16 -16 13 -55 82 -55 96 0 18 58 -55
64 -80z m163 -58 c-15 -24 -36 -54 -48 -68 l-21 -25 6 34 c3 18 6 41 6 51 0
16 69 63 79 54 2 -2 -8 -22 -22 -46z m33 -22 c0 -26 -5 -35 -22 -39 -12 -4
-24 -5 -26 -3 -3 4 40 76 46 76 1 0 2 -15 2 -34z m-111 -36 c-6 -40 -16 -62
-39 -84 l-30 -31 0 57 c0 53 2 58 37 87 20 17 38 29 39 28 1 -1 -2 -27 -7 -57z
m100 -57 c-11 -39 -13 -41 -67 -52 -79 -16 -80 -15 -41 25 28 30 108 79 116
71 1 -2 -3 -21 -8 -44z m-189 -28 c-6 -35 -18 -68 -32 -84 -13 -14 -26 -30
-30 -35 -5 -6 -8 15 -8 45 0 49 4 60 36 98 20 23 38 40 40 38 2 -2 -1 -30 -6
-62z m170 -40 c0 -3 -9 -23 -19 -44 -18 -34 -25 -39 -67 -45 -26 -3 -64 -6
-86 -6 -36 0 -38 2 -28 20 16 30 57 53 119 66 66 14 81 16 81 9z m-253 -59
c-3 -30 -13 -66 -23 -81 -18 -27 -18 -27 -26 -5 -6 16 -1 39 18 81 15 32 29
59 32 59 3 0 2 -24 -1 -54z m193 -54 c0 -23 -49 -51 -100 -58 -30 -3 -70 -13
-89 -20 -18 -8 -35 -14 -37 -14 -9 0 25 57 41 70 27 22 185 41 185 22z m-259
-109 c-9 -15 -10 -13 -11 13 0 17 3 34 8 38 11 12 14 -32 3 -51z m159 6 c-19
-16 -63 -47 -97 -69 -55 -34 -63 -37 -63 -20 0 58 38 95 111 109 82 16 88 14
49 -20z m280 -38 c-8 -5 -25 -12 -37 -15 -18 -6 -22 -4 -17 8 4 10 18 16 38
16 22 -1 27 -3 16 -9z m-140 -10 c0 -19 -41 -59 -65 -63 -29 -6 -29 -6 -10 32
8 16 25 31 37 33 13 2 26 5 31 6 4 0 7 -3 7 -8z m68 -3 c-5 -15 -57 -42 -65
-35 -2 3 0 15 7 26 12 23 65 31 58 9z m85 -19 c-14 -15 -27 -19 -40 -15 -16 7
-14 9 12 21 44 20 52 18 28 -6z m-243 -8 c0 -16 -41 -61 -56 -61 -8 0 -14 3
-14 6 0 11 23 49 34 56 15 10 36 10 36 -1z m190 -21 c13 -9 11 -13 -9 -29 -23
-17 -27 -18 -48 -4 -27 18 -29 30 -5 36 30 8 46 7 62 -3z m-279 -38 c-11 -21
-60 -56 -67 -49 -3 3 11 22 31 42 36 39 55 42 36 7z m206 -2 l25 -19 -25 -12
c-21 -10 -30 -7 -62 14 -24 16 -32 27 -23 30 28 11 61 6 85 -13z m-98 -14 c15
-8 33 -21 39 -29 10 -12 8 -16 -12 -21 -17 -4 -36 1 -61 18 -32 22 -34 26 -18
35 23 13 19 13 52 -3z m-56 -38 l32 -23 -45 -5 c-25 -3 -58 -3 -74 -1 l-29 4
39 23 c21 13 41 24 42 24 2 0 18 -10 35 -22z m-536 -137 c5 -10 -2 -9 -25 5
-30 17 -32 22 -32 74 l0 55 26 -60 c14 -33 28 -66 31 -74z m32 49 c12 -17 15
-34 11 -55 -7 -29 -8 -28 -38 37 -18 37 -32 71 -32 74 0 10 40 -27 59 -56z
m4432 -205 c30 -157 37 -475 15 -640 -144 -1043 -1027 -1805 -2081 -1793
l-150 1 135 7 c231 13 418 50 626 126 307 110 562 280 834 553 280 281 461
604 559 996 62 248 70 606 21 867 -6 28 -10 58 -9 67 2 28 29 -70 50 -184z
m-4351 79 c0 -6 -5 -26 -11 -44 l-12 -32 -20 46 c-14 33 -17 56 -12 83 l7 38
24 -40 c13 -22 24 -45 24 -51z m-116 39 c39 -39 70 -88 64 -103 -2 -5 -26 6
-55 23 -42 26 -52 37 -53 59 0 14 -3 33 -6 42 -10 27 11 18 50 -21z m151 -181
c-6 -35 -8 -36 -21 -17 -15 20 -19 91 -7 121 12 31 36 -61 28 -104z m-74 30
c26 -29 38 -62 24 -62 -3 0 -27 11 -54 25 -38 19 -52 33 -65 65 -9 22 -16 43
-16 46 0 12 85 -44 111 -74z m190 -33 c20 -12 23 -191 6 -281 -9 -46 -19 -101
-23 -123 -6 -38 -8 -35 -26 55 -21 103 -20 232 3 344 11 51 14 56 21 35 5 -13
14 -26 19 -30z m-163 -56 c30 -22 43 -53 23 -53 -5 0 -31 20 -58 45 -39 38
-44 45 -23 39 14 -3 40 -17 58 -31z m62 0 c0 -24 -3 -33 -9 -25 -7 12 -4 62 5
62 2 0 4 -17 4 -37z m-245 -319 c14 -32 24 -59 22 -60 -2 -2 -17 9 -34 24 -35
30 -53 95 -52 185 l0 52 20 -72 c10 -40 30 -98 44 -129z m40 41 c-5 -47 -10
-63 -16 -52 -10 16 -69 194 -69 205 0 4 21 -14 46 -39 l46 -46 -7 -68z m569
16 l-7 -36 -9 34 c-7 25 -6 42 3 60 l13 26 4 -24 c2 -13 0 -40 -4 -60z m-494
-18 l42 -48 2 -103 1 -104 -33 39 c-19 21 -41 51 -49 67 -19 36 -31 196 -15
196 6 0 29 -21 52 -47z m469 -38 c1 -18 -10 -47 -26 -70 l-28 -40 -6 60 c-6
54 -4 62 19 94 27 34 27 34 33 10 4 -13 7 -38 8 -54z m53 23 c-9 -9 -12 -4
-11 23 0 32 1 33 11 11 8 -17 8 -26 0 -34z m8 -57 c0 -35 -3 -40 -31 -50 -47
-16 -51 -14 -32 17 17 28 54 72 60 72 2 0 3 -18 3 -39z m-131 -63 c1 -25 -9
-52 -29 -85 -26 -41 -30 -44 -30 -21 0 14 -5 39 -11 55 -9 27 -6 37 23 84 30
50 33 52 39 29 4 -14 7 -42 8 -62z m-280 -18 c13 -23 20 -62 22 -117 l4 -82
-33 31 c-40 39 -52 81 -52 178 l0 75 21 -25 c11 -14 28 -41 38 -60z m-147 -42
c15 -23 26 -44 24 -46 -2 -2 -19 1 -37 5 -26 7 -39 21 -66 68 -18 33 -33 63
-33 68 0 17 86 -57 112 -95z m538 15 c-10 -33 -18 -40 -58 -54 -26 -9 -56 -20
-66 -24 -17 -8 -17 -4 5 34 13 24 33 48 44 54 25 15 79 35 83 32 2 -2 -2 -20
-8 -42z m-190 -84 c0 -26 -6 -61 -13 -78 l-13 -32 -12 26 c-15 33 -15 41 4
105 18 62 34 53 34 -21z m-135 -40 c30 -96 31 -107 6 -85 -12 11 -23 42 -30
80 -20 115 -12 117 24 5z m294 54 c0 -5 -8 -25 -17 -46 -14 -32 -27 -42 -77
-62 -32 -14 -61 -23 -62 -21 -6 6 7 50 21 68 7 10 37 29 67 43 57 26 69 30 68
18z m-468 -16 c30 -13 127 -97 113 -97 -36 0 -86 26 -124 65 -44 45 -40 56 11
32z m409 -106 c0 -13 -100 -121 -111 -121 -14 0 -11 54 4 74 7 10 31 26 52 36
47 22 55 23 55 11z m104 -165 l-6 -118 -35 35 c-49 48 -49 94 -3 185 33 64 36
67 43 43 4 -14 5 -79 1 -145z m71 138 c31 -19 59 -42 62 -50 3 -9 -12 -32 -38
-59 -24 -24 -54 -63 -67 -87 -16 -29 -22 -35 -18 -18 13 67 17 180 8 213 -6
20 -9 37 -6 37 2 0 29 -16 59 -36z m511 -1 c-13 -24 -15 -25 -16 -7 0 11 5 25
12 32 19 19 21 6 4 -25z m34 -8 c0 -25 -4 -35 -16 -35 -11 0 -14 5 -9 18 4 9
10 25 12 35 8 27 13 20 13 -18z m-975 15 c8 -13 -5 -13 -25 0 -13 8 -13 10 2
10 9 0 20 -4 23 -10z m118 -10 c3 -11 1 -23 -4 -26 -5 -3 -9 6 -9 20 0 31 6
34 13 6z m781 -69 l-18 -46 -8 39 c-7 34 -5 43 14 64 20 20 23 21 26 7 2 -10
-4 -38 -14 -64z m-329 -6 c-20 -66 -19 -127 5 -216 37 -138 23 -156 -33 -44
-21 41 -39 75 -41 75 -1 0 -19 -25 -41 -55 l-40 -54 -17 32 c-9 18 -17 43 -17
57 -1 51 44 124 119 193 41 36 75 65 77 64 1 -2 -4 -25 -12 -52z m84 -33 c40
-89 64 -217 56 -292 -4 -30 -18 -82 -32 -117 -24 -57 -30 -63 -69 -76 -24 -8
-44 -13 -44 -11 0 2 4 13 9 26 5 13 17 64 26 114 16 88 16 93 -4 169 -12 43
-21 102 -21 130 0 55 28 152 39 138 4 -4 22 -41 40 -81z m179 -63 l-23 -42 -3
67 c-3 60 0 69 20 86 l23 18 3 -44 c2 -32 -3 -56 -20 -85z m136 95 c-4 -17
-61 -50 -71 -41 -6 7 31 49 51 57 26 10 26 9 20 -16z m-919 -46 c22 -70 52
-114 135 -204 62 -67 152 -215 138 -229 -2 -3 -19 1 -36 7 -24 10 -47 9 -103
0 -70 -12 -73 -12 -96 10 -13 12 -38 51 -55 85 -30 61 -30 65 -24 165 6 114
17 218 21 218 2 0 11 -24 20 -52z m159 -39 c67 -39 137 -113 171 -180 l24 -46
-21 -42 c-11 -23 -23 -62 -26 -87 -5 -50 -14 -48 -31 8 -19 57 -87 156 -161
233 -49 51 -73 86 -88 128 -12 32 -22 62 -22 67 0 5 21 -4 48 -19 26 -16 73
-43 106 -62z m570 -89 c-5 -21 -9 -14 -20 38 -12 58 -11 67 4 90 l17 26 3 -64
c2 -35 0 -76 -4 -90z m175 99 c-15 -43 -11 -39 -51 -48 -18 -5 -43 -11 -56
-15 l-23 -8 23 36 c14 22 40 43 68 55 25 11 46 18 47 17 2 -2 -2 -18 -8 -37z
m-204 -96 c3 -23 3 -52 -1 -65 -7 -20 -9 -18 -15 17 -11 57 -11 124 0 105 5
-8 12 -34 16 -57z m166 19 c-5 -10 -16 -24 -24 -30 -14 -12 -107 -43 -107 -37
0 27 41 58 100 76 38 11 41 10 31 -9z m-936 -91 c0 -44 -3 -77 -6 -75 -3 2
-16 30 -28 63 -12 33 -27 64 -34 68 -8 5 -3 10 13 14 55 15 56 15 55 -70z
m-50 -20 l22 -58 -44 -10 c-37 -9 -43 -8 -48 8 -4 10 -1 35 4 56 6 21 11 51
11 68 0 28 1 28 17 12 9 -9 26 -43 38 -76z m881 4 c-43 -38 -56 -43 -56 -20 0
17 56 55 80 55 9 -1 -1 -15 -24 -35z m-260 -79 c33 -92 2 -199 -78 -271 -28
-25 -53 -44 -55 -41 -3 2 8 33 22 68 64 149 68 167 56 244 -7 38 -9 78 -5 88
5 14 10 12 27 -16 11 -18 26 -50 33 -72z m-67 -54 c1 -41 -7 -71 -33 -125 -19
-40 -38 -85 -43 -102 -9 -28 -10 -26 -23 33 -23 110 -2 205 64 295 l21 29 7
-39 c4 -21 7 -62 7 -91z m485 53 c-26 -30 -75 -74 -108 -97 -33 -24 -78 -60
-99 -80 l-39 -38 6 35 c8 39 8 39 -28 25 -14 -5 -26 -8 -26 -6 0 2 13 33 30
68 46 103 77 122 224 138 39 4 75 8 79 9 5 0 -13 -24 -39 -54z m26 -79 c-26
-112 -58 -173 -125 -241 -81 -80 -140 -108 -245 -112 l-85 -4 53 26 c51 26
100 82 116 131 14 45 66 102 134 147 38 25 92 71 118 101 27 31 50 52 52 47 1
-4 -7 -47 -18 -95z m-1009 64 c10 -6 19 -16 19 -21 0 -6 13 -31 30 -55 l29
-44 -37 6 c-23 4 -80 -3 -146 -16 -116 -24 -170 -23 -213 5 l-26 17 53 19 c29
10 63 25 76 34 24 16 160 64 182 65 7 0 22 -5 33 -10z m32 -137 c-13 -2 -33
-2 -45 0 -13 2 -3 4 22 4 25 0 35 -2 23 -4z m277 -6 c30 -15 70 -73 70 -101 0
-20 -4 -21 -112 -18 -131 3 -193 20 -233 62 l-29 30 35 0 c19 0 70 9 114 19
97 23 123 24 155 8z m-562 -20 c17 -4 69 0 115 8 45 8 85 15 89 15 4 0 10 -16
14 -35 10 -53 59 -122 110 -155 41 -25 44 -31 28 -37 -10 -5 -57 -8 -104 -7
-71 0 -93 4 -135 26 -59 31 -105 74 -151 143 -38 56 -42 70 -16 57 9 -5 32
-12 50 -15z m942 -13 c0 -3 -17 -26 -37 -51 -41 -50 -91 -79 -155 -89 l-43 -7
69 66 c62 61 101 84 149 86 9 1 17 -2 17 -5z m23 -36 c-26 -136 -161 -220
-232 -144 l-21 22 40 1 c65 3 128 43 185 118 15 19 29 35 31 35 2 0 1 -15 -3
-32z m-623 -44 c25 -13 69 -19 156 -23 138 -7 173 -21 135 -52 -12 -10 -46
-23 -75 -29 -96 -20 -194 16 -265 96 -48 54 -58 94 -13 52 15 -14 43 -34 62
-44z m-288 -128 c41 -36 40 -46 -3 -46 -35 0 -118 66 -92 73 40 10 60 5 95
-27z m-104 -6 c17 -16 32 -31 32 -33 0 -1 -19 -1 -42 1 -40 4 -88 33 -88 54 0
21 67 6 98 -22z m226 1 c55 -14 64 -19 45 -24 -47 -13 -90 -7 -129 18 -68 43
-58 44 84 6z m451 9 c-9 -10 -40 -27 -69 -36 -76 -25 -106 -42 -164 -95 -76
-70 -86 -65 -52 26 40 107 39 106 129 99 55 -4 87 -2 116 9 55 20 61 20 40 -3z
m40 -18 c-18 -83 -150 -170 -272 -179 l-68 -5 40 29 c22 17 51 42 64 56 14 16
55 37 103 53 48 16 89 37 106 54 32 33 36 31 27 -8z m-835 13 c17 -20 -7 -20
-34 0 -19 15 -19 15 1 15 11 0 26 -7 33 -15z m-25 -25 c22 -11 48 -20 60 -20
16 0 17 -2 5 -10 -26 -17 -48 -11 -82 20 -39 35 -36 37 17 10z m547 8 c-6 -7
-22 -44 -36 -82 -15 -38 -31 -75 -37 -82 -16 -20 27 -37 93 -37 56 0 57 -1 41
-19 -32 -35 -80 -58 -177 -83 -53 -14 -101 -25 -106 -25 -6 0 1 17 14 38 13
20 32 64 41 97 22 76 46 123 82 157 37 35 110 66 85 36z m376 -76 c29 -77 28
-83 -8 -34 -27 38 -41 92 -22 92 4 0 17 -26 30 -58z m-514 11 c-26 -39 -47
-50 -97 -52 l-29 -1 26 31 c14 17 26 34 26 39 0 8 29 15 77 19 l22 1 -25 -37z
m806 17 c-58 -20 -126 -25 -157 -13 -23 9 89 30 162 31 l50 0 -55 -18z m174 9
c49 -13 40 -20 -72 -55 -75 -24 -87 -25 -127 -14 -52 14 -51 25 2 34 21 3 54
14 73 25 42 22 71 25 124 10z m-1220 -14 c-1 -5 -13 -18 -27 -28 -23 -18 -26
-18 -57 -2 l-33 17 24 13 c27 15 95 15 93 0z m146 8 c0 -4 -14 -22 -32 -40
-32 -34 -62 -40 -116 -24 l-23 6 28 27 c18 17 42 28 68 31 22 2 48 4 58 5 9 1
17 -1 17 -5z m1154 -70 c-49 -22 -184 -33 -184 -15 0 5 26 16 58 26 31 10 68
24 82 31 20 11 30 10 58 -4 l34 -16 -48 -22z m-638 -17 c-56 -95 -209 -195
-355 -232 -60 -15 -127 -14 -154 3 -10 6 76 36 140 48 59 11 139 52 171 89 16
18 50 41 76 51 26 10 69 37 94 61 26 23 49 38 50 33 2 -5 -8 -29 -22 -53z m99
-55 c29 -85 13 -108 -30 -43 -28 42 -41 93 -31 119 7 16 9 15 26 -7 11 -14 26
-45 35 -69z m184 -45 c34 -24 40 -33 35 -52 -8 -32 21 -118 57 -171 27 -39 28
-43 10 -43 -33 0 -99 89 -165 225 -87 177 -91 194 -28 125 27 -31 68 -69 91
-84z m463 82 c45 -49 50 -67 10 -38 -16 12 -56 26 -90 33 l-62 12 43 17 c23 9
46 17 51 17 5 1 26 -18 48 -41z m-722 -30 c0 -13 -16 -41 -35 -63 l-34 -40 -1
29 c0 17 11 42 28 61 32 40 42 43 42 13z m572 -8 c28 -25 30 -29 13 -30 -34 0
-98 21 -124 41 l-24 19 51 0 c43 0 57 -5 84 -30z m129 -6 c14 -7 32 -20 40
-30 13 -16 11 -17 -20 -11 -18 4 -46 7 -60 7 -19 0 -34 10 -50 31 l-23 31 43
-7 c24 -4 56 -13 70 -21z m-698 -93 c-4 -26 -20 -50 -55 -85 -47 -47 -49 -48
-43 -20 14 62 26 88 57 123 37 41 49 36 41 -18z m466 37 c24 -11 22 -12 -34
-19 -58 -7 -95 1 -95 21 0 21 75 20 129 -2z m-375 -76 c-1 -10 -6 -39 -10 -67
l-6 -50 -30 59 c-24 48 -28 65 -23 98 l7 40 33 -32 c18 -17 31 -39 29 -48z
m260 25 c14 -21 48 -158 41 -165 -6 -7 -46 58 -60 99 -27 75 -14 117 19 66z
m201 11 c37 -17 31 -25 -26 -33 -39 -6 -60 -3 -92 11 l-42 19 50 6 c81 10 83
10 110 -3z m-126 -45 c15 -13 27 -45 41 -112 12 -51 19 -98 18 -103 -2 -4 -17
4 -35 19 -26 24 -33 39 -42 98 -6 39 -14 80 -17 93 -8 27 6 28 35 5z m268 -57
c11 -17 -128 5 -165 27 l-37 22 47 5 c26 3 50 9 54 13 6 6 90 -48 101 -67z
m452 8 c-83 -86 -159 -102 -80 -16 40 42 55 52 82 52 l33 0 -35 -36z m-1169
-33 c-6 -22 -15 -43 -21 -47 -6 -3 -24 -27 -40 -52 l-29 -46 0 51 c0 47 4 55
47 103 51 57 60 55 43 -9z m74 -101 l-17 -55 -24 53 c-23 49 -24 56 -12 107
l12 55 29 -52 30 -53 -18 -55z m526 75 c11 -34 41 -188 37 -192 -2 -1 -24 10
-51 25 l-49 27 -18 90 c-10 50 -21 100 -24 113 l-6 23 50 -25 c38 -20 52 -33
61 -61z m664 77 c8 -13 -57 -59 -94 -67 l-35 -7 40 41 c36 38 76 53 89 33z
m-205 -48 c-38 -39 -68 -59 -77 -50 -7 8 36 54 73 77 42 26 44 14 4 -27z m277
21 c18 -14 17 -14 -16 -15 -19 0 -46 -3 -60 -6 l-25 -6 25 21 c30 24 49 26 76
6z m-567 -54 c41 -53 55 -81 39 -81 -20 0 -71 31 -128 77 l-51 42 56 -1 c52
-1 58 -4 84 -37z m-58 -63 c11 -20 40 -178 33 -178 -2 0 -24 10 -49 22 -42 21
-45 24 -45 62 -1 23 -7 68 -15 101 -8 33 -15 64 -15 68 0 13 79 -52 91 -75z
m647 66 c-16 -8 -38 -12 -53 -8 -43 11 -27 24 28 24 52 -1 52 -1 25 -16z m-72
-15 l28 -10 -27 -18 c-27 -17 -30 -17 -88 3 -50 18 -56 22 -37 28 36 10 94 9
124 -3z m-115 -31 l64 -22 -30 -12 c-46 -20 -75 -17 -118 13 -39 27 -39 28
-16 34 13 4 27 7 30 8 3 1 34 -9 70 -21z m-1198 -50 c-4 -29 -14 -71 -24 -92
l-17 -40 -8 39 c-6 32 -2 49 21 92 15 29 29 53 31 53 2 0 0 -24 -3 -52z m1080
35 c18 -9 26 -18 20 -20 -17 -6 -83 16 -83 28 0 14 28 11 63 -8z m-1010 -124
c-8 -42 -20 -44 -40 -7 -17 33 -18 42 -7 107 l5 34 24 -52 c17 -35 22 -61 18
-82z m789 72 c4 -3 14 -23 23 -43 15 -36 14 -38 -4 -38 -17 0 -81 75 -81 94 0
7 52 -4 62 -13z m-32 -77 c11 -28 6 -74 -8 -74 -21 1 -30 21 -36 84 l-7 70 20
-26 c11 -14 25 -38 31 -54z m376 -5 c-39 -21 -62 -27 -69 -20 -15 15 51 51 93
50 35 0 35 0 -24 -30z m148 15 c21 -8 10 -24 -16 -24 -12 0 -41 -9 -65 -21
-33 -16 -49 -19 -70 -11 -28 10 -28 10 27 36 54 25 93 32 124 20z m1146 1 c0
-10 -231 -77 -345 -100 -249 -51 -615 -56 -650 -9 -21 28 -18 37 9 30 54 -13
318 -26 421 -20 138 8 366 46 465 78 77 25 100 30 100 21z m-2448 -101 c-6
-47 -19 -43 -27 9 -3 23 -9 51 -12 62 -4 16 0 14 19 -9 17 -21 23 -37 20 -62z
m862 43 c12 -45 5 -50 -19 -15 -30 44 -30 48 -6 41 11 -3 22 -15 25 -26z m511
13 c10 -11 16 -21 14 -23 -2 -2 -32 -9 -65 -15 -45 -9 -69 -9 -90 -1 -28 10
-28 11 -9 22 16 9 96 32 126 36 3 1 14 -8 24 -19z m-1410 -92 c4 -16 5 -28 1
-28 -11 0 -36 60 -36 88 0 44 14 48 21 5 3 -21 9 -50 14 -65z m885 18 c0 -3
-11 0 -25 6 -19 8 -25 19 -25 42 l0 31 25 -37 c14 -20 25 -39 25 -42z m279 24
c12 -18 13 -22 2 -19 -8 3 -21 16 -30 29 -12 18 -13 22 -2 19 8 -3 21 -16 30
-29z m79 -27 c20 -28 22 -33 8 -33 -19 0 -66 43 -66 60 0 21 32 5 58 -27z
m219 21 c5 -16 -76 -24 -102 -11 -19 10 -19 11 5 18 35 11 93 6 97 -7z m-153
-25 c33 -26 35 -49 4 -41 -22 5 -57 39 -58 55 0 14 27 7 54 -14z m174 -21 c4
-23 -7 -22 -38 3 l-25 20 30 -3 c19 -2 31 -9 33 -20z m-97 2 c27 -15 24 -30
-6 -30 -14 0 -25 2 -25 4 0 2 -3 11 -6 20 -7 18 8 21 37 6z"/>
<path d="M2477 3356 c-196 -447 -359 -821 -363 -830 -6 -15 1 -17 56 -14 l63
3 86 210 c48 116 90 216 94 223 6 9 92 12 371 12 l364 0 93 -225 94 -225 127
0 c71 0 128 3 128 6 0 5 -665 1528 -711 1627 -7 15 -20 27 -29 27 -13 0 -104
-200 -373 -814z m477 76 c86 -210 156 -384 156 -387 0 -3 -148 -5 -330 -5
-181 0 -330 2 -330 4 0 5 320 779 327 789 8 14 7 17 177 -401z"/>
<path d="M2410 1580 l0 -810 115 0 115 0 0 364 0 363 198 6 c225 6 305 21 423
83 88 46 169 132 200 211 19 47 23 78 23 168 1 99 -2 116 -26 168 -36 76 -112
148 -201 192 -122 58 -178 65 -533 65 l-314 0 0 -810z m635 701 c102 -49 171
-144 195 -268 22 -118 -44 -308 -128 -370 -86 -64 -168 -83 -349 -83 l-123 0
0 354 0 355 22 7 c52 16 169 32 243 33 69 1 88 -3 140 -28z"/>
</g>
</svg>
